# xmcd
#
# Track frame offsets:
#	150
#	31976
#	54882
#	91604
#	121324
#	185719
#	206889
#
# Disc length: 3872 seconds
# Revision: 0
# Processed by: cddbd v1.5.2PL0 Copyright (c) Steve Scherf et al.
# Submitted via: dBpowerAMP V12.0
#
DISCID=570f1e07
DTITLE=Average White Band - Person To Person
DYEAR=1977
DGENRE=R&B
TTITLE0=Person To Person [live]
TTITLE1=Cut The Cake [live]
TTITLE2=If I Ever Lose This Heaven [live]
TTITLE3=Cloudy [live]
TTITLE4=T.L.C. [live]
TTITLE5=I'm The One [live]
TTITLE6=Pick Up The Pieces [live]
EXTD=
EXTT0=
EXTT1=
EXTT2=
EXTT3=
EXTT4=
EXTT5=
EXTT6=
PLAYORDER=
